<?xml version="1.0" ?><!DOCTYPE svg  PUBLIC '-//W3C//DTD SVG 1.1//EN'  'http://www.w3.org/Graphics/SVG/1.1/DTD/svg11.dtd'><svg enable-background="new 0 0 32 32" height="32px" version="1.1" viewBox="0 0 32 32" width="32px" xml:space="preserve" xmlns="http://www.w3.org/2000/svg" xmlns:xlink="http://www.w3.org/1999/xlink"><g id="Guides"/><g id="Mail"/><g id="Cloud"/><g id="Home"/><g id="Back"/><g id="Next"/><g id="Reload"/><g id="Buble"/><g id="Accept"/><g id="Reject"/><g id="User"/><g id="Download"/><g id="Upload"/><g id="Camera"/><g id="Notification"/><g id="About"/><g id="Search"/><g id="Cart"/><g id="Sound"/><g id="List"><path d="M9.2285,16c0,0.8281-0.6709,1.5-1.5,1.5s-1.5-0.6719-1.5-1.5c0-0.8301,0.6709-1.5,1.5-1.5S9.2285,15.1699,9.2285,16z    M7.7285,20.5c-0.8291,0-1.5,0.6699-1.5,1.5c0,0.8281,0.6709,1.5,1.5,1.5s1.5-0.6719,1.5-1.5   C9.2285,21.1699,8.5576,20.5,7.7285,20.5z M7.7285,8.5c-0.8291,0-1.5,0.6719-1.5,1.5c0,0.8301,0.6709,1.5,1.5,1.5   s1.5-0.6699,1.5-1.5C9.2285,9.1719,8.5576,8.5,7.7285,8.5z M25.7715,15h-14.043c-0.5527,0-1,0.4473-1,1s0.4473,1,1,1h14.043   c0.5527,0,1-0.4473,1-1S26.3242,15,25.7715,15z M25.7285,21h-14.043c-0.5527,0-1,0.4473-1,1s0.4473,1,1,1h14.043   c0.5527,0,1-0.4473,1-1S26.2813,21,25.7285,21z M11.6855,11h14.043c0.5527,0,1-0.4473,1-1s-0.4473-1-1-1h-14.043   c-0.5527,0-1,0.4473-1,1S11.1328,11,11.6855,11z"/></g><g id="Settings"/></svg>