<svg xmlns="http://www.w3.org/2000/svg" xmlns:xlink="http://www.w3.org/1999/xlink" version="1.1" id="Layer_1" x="0px" y="0px" style="enable-background:new 0 0 213 126;" xml:space="preserve" viewBox="12.64 3.69 186.71 47.08">
<style type="text/css">
	.st0{fill:#FFFFFD;}
</style>
<g>
	<g>
		<path id="SVGID_00000069396099821087680730000006069448815975843991_" class="st0" d="M71.19,10.76V7.88l11.23,15.31l-1.06,1.44    L71.19,10.76z M96.15,9.51V4.46L83.11,22.24L70.07,4.46v4.77l-3.46-4.72v45.84h1.08V7.88l13.76,18.5l13.59-18.5v3.24    c-3.34,4.82-7.59,10.94-9.45,13.63l-4.24,5.77l-11.29-15.4v35.23h0.01h1.11h0.01v-31.8l2.37,3.23v28.57h1.12V23.31l6.69,9.12    l0.69-0.94l-0.01-0.02l3.19-4.51l2,2.75l4.31-6.16v26.8h1.11v-28.4l2.38-3.4v31.8h0.01h1.11h0.01V15.13l-8.93,12.7L86,26.1    L98.55,7.89v42.48h1.11V4.47C99.65,4.46,98.18,6.59,96.15,9.51"/>
	</g>
</g>
<g>
	<g>
		<path id="SVGID_00000129206441908993458260000007824378948307780237_" class="st0" d="M155.96,10.76V7.88l11.23,15.31l-1.06,1.44    L155.96,10.76z M180.93,9.51V4.46l-13.04,17.78L154.84,4.46v4.77l-3.5-4.77v45.89h1.12V7.88l13.76,18.5l13.59-18.5v3.24    c-3.34,4.82-7.59,10.94-9.45,13.63l-4.24,5.77l-11.29-15.4v35.23h1.13v-31.8l2.37,3.23v28.57h1.12V23.31l6.69,9.12l0.69-0.94    l-0.01-0.02l3.19-4.51l2,2.75l4.31-6.16v26.8h1.11v-28.4l2.38-3.4v31.8h1.13V15.13l-8.93,12.7l-1.24-1.73l12.55-18.21v42.48h1.11    V4.47C184.43,4.46,182.95,6.59,180.93,9.51"/>
	</g>
</g>
<g>
	<g>
		<path id="SVGID_00000163062357307241501980000014012635791074715039_" class="st0" d="M132.61,22.01l5.85,23.97H126.8    L132.61,22.01z M130.87,14.86l1.17,4.79l-6.38,26.33h-2.35L130.87,14.86z M139.59,47.1h0.3l-8.46-34.65l1.22-4.43l10.27,41.46    h-24.05l10.18-41.46l1.23,4.43l-8.39,34.65H139.59z M134.93,12.45l1.22-4.43l10.27,41.46h-2.35L134.93,12.45z M134.35,10.08    l-0.04-0.12c0,0.01-0.01,0.03-0.01,0.05l-1.43-5.78l-2.02,5.86l-1.86-5.86L117.45,50.6h30.39L136.37,4.23L134.35,10.08z"/>
	</g>
</g>
<g>
	<g>
		
			<rect id="SVGID_00000000943975881528299030000014643249324977965477_" x="109.92" y="4.04" class="st0" width="1.11" height="46.73"/>
	</g>
</g>
<g>
	<g>
		
			<rect id="SVGID_00000147935741181680590830000003435163266008615871_" x="106.42" y="4.04" class="st0" width="1.12" height="46.73"/>
	</g>
</g>
<g>
	<g>
		
			<rect id="SVGID_00000155842229703954075570000005269535702215816360_" x="113.42" y="4.04" class="st0" width="1.11" height="46.73"/>
	</g>
</g>
<g>
	<g>
		
			<rect id="SVGID_00000127015065909518701590000018181895099553337755_" x="194.74" y="4.04" class="st0" width="1.11" height="46.73"/>
	</g>
</g>
<g>
	<g>
		
			<rect id="SVGID_00000090990197750030497330000000663151143047204993_" x="191.24" y="4.04" class="st0" width="1.12" height="46.73"/>
	</g>
</g>
<g>
	<g>
		
			<rect id="SVGID_00000037651914257980129890000016144739784436229817_" x="198.24" y="4.04" class="st0" width="1.11" height="46.73"/>
	</g>
</g>
<g>
	<polygon class="st0" points="27.08,42.04 27.47,41.51 26,40.43 25.42,40.01 23.58,42.53 24.15,42.95 24.8,42.06 25.78,42.77    26.17,42.24 25.19,41.53 25.61,40.96  "/>
	<polygon class="st0" points="29.02,42.29 28.37,41.99 27.09,44.85 27.31,44.95 29.33,45.85 29.6,45.24 28.01,44.53  "/>
	<path class="st0" d="M32.89,43.51c-1-0.2-1.78,0.39-1.96,1.26c-0.17,0.87,0.32,1.72,1.32,1.92s1.78-0.39,1.96-1.26   C34.39,44.56,33.89,43.71,32.89,43.51z M33.51,45.29c-0.11,0.52-0.55,0.86-1.12,0.74c-0.58-0.12-0.85-0.59-0.74-1.12   c0.11-0.53,0.54-0.86,1.12-0.74C33.34,44.28,33.61,44.76,33.51,45.29z"/>
	<path class="st0" d="M37.82,45.81c0.34-0.18,0.57-0.52,0.55-0.95c-0.03-0.62-0.52-1.01-1.14-0.99l-0.96,0.04l-0.71,0.03l0.13,3.12   l0.71-0.03l-0.04-1.06l0.77-0.03l0.75,1.03l0.75-0.03v-0.03L37.82,45.81z M37.21,45.32l-0.87,0.04l-0.03-0.82l0.87-0.04   c0.27-0.01,0.47,0.14,0.48,0.39C37.67,45.15,37.48,45.31,37.21,45.32z"/>
	
		<rect x="39.84" y="43.47" transform="matrix(0.9758 -0.2188 0.2188 0.9758 -8.8775 9.8858)" class="st0" width="0.71" height="3.12"/>
	<path class="st0" d="M42.66,42.59l-0.56,0.24l-0.66,0.28l1.23,2.87l0.04-0.02l1.17-0.5c0.85-0.36,1.23-1.26,0.88-2.07   C44.42,42.57,43.51,42.23,42.66,42.59z M43.62,44.86l-0.55,0.24l-0.71-1.66l0.55-0.24c0.49-0.21,0.99-0.02,1.19,0.47   C44.32,44.16,44.11,44.65,43.62,44.86z"/>
	<path class="st0" d="M46.36,40.44l-0.6,0.44l0.75,3.28l0.02,0.03l0.62-0.45L47,43.17l1.17-0.87l0.5,0.31l0.62-0.45l-0.02-0.03   L46.36,40.44z M46.83,42.52l-0.31-1.23l1.08,0.66L46.83,42.52z"/>
	<path class="st0" d="M18.26,23.58c0.99,0.3,2.01-0.16,2.35-1.27c0.23-0.74,0.03-1.43-0.42-1.84l-0.58,0.55   c0.28,0.24,0.39,0.63,0.26,1.05c-0.2,0.65-0.78,0.88-1.37,0.7s-0.95-0.68-0.75-1.33c0.13-0.42,0.43-0.68,0.8-0.72l-0.18-0.78   c-0.61,0.09-1.14,0.55-1.37,1.29C16.67,22.34,17.26,23.28,18.26,23.58z"/>
	
		<rect x="19.72" y="16.81" transform="matrix(0.4737 -0.8807 0.8807 0.4737 -5.7999 27.5371)" class="st0" width="0.83" height="3.63"/>
	<polygon class="st0" points="20.94,15.46 23.16,17.25 23.68,16.61 21.46,14.81 22.24,13.85 21.64,13.37 20.86,14.33 19.56,15.94    20.16,16.43  "/>
	<polygon class="st0" points="25.1,13.24 25.97,14.4 26.63,13.9 25.76,12.74 25.59,10.2 25.56,10.16 24.84,10.71 24.99,12.41    23.39,11.8 22.67,12.35 22.69,12.39  "/>
	<path class="st0" d="M32.07,11.42c1.14-0.3,1.67-1.31,1.41-2.31s-1.21-1.63-2.35-1.33c-1.14,0.3-1.67,1.31-1.41,2.31   C29.98,11.09,30.93,11.72,32.07,11.42z M31.32,8.54c0.66-0.17,1.19,0.18,1.35,0.79c0.16,0.6-0.13,1.17-0.79,1.35   c-0.66,0.17-1.19-0.19-1.35-0.79C30.37,9.27,30.66,8.71,31.32,8.54z"/>
	<polygon class="st0" points="35.76,9.55 37.16,9.57 37.17,8.8 35.77,8.78 35.79,7.97 37.91,8 37.92,7.23 35.8,7.2 34.97,7.19    34.91,10.81 35.74,10.82  "/>
	<polygon class="st0" points="42.44,9.62 42.87,11.31 42.93,11.34 44.45,10.46 43.57,12.54 44.33,12.87 45.74,9.53 45.1,9.25    43.35,10.27 42.85,8.31 42.21,8.03 40.8,11.37 41.56,11.7  "/>
	
		<rect x="44.91" y="11.96" transform="matrix(0.5793 -0.8151 0.8151 0.5793 9.566 43.2898)" class="st0" width="3.63" height="0.83"/>
	<path class="st0" d="M46.8,14.58l0.61,0.65l0.63-0.25l1.16,1.24l-0.28,0.62l0.61,0.65l0.03-0.03l1.55-3.59l-0.59-0.63l-3.68,1.31   L46.8,14.58z M50.14,14.18l-0.62,1.34l-0.76-0.81L50.14,14.18z"/>
	<polygon class="st0" points="50.34,18.87 52.35,17.86 51.58,19.42 51.61,19.49 53.33,19.8 51.32,20.82 51.69,21.56 54.93,19.92    54.61,19.3 52.62,18.94 53.51,17.12 53.2,16.5 49.96,18.13  "/>
	
		<rect x="52.02" y="22.32" transform="matrix(0.9691 -0.2465 0.2465 0.9691 -3.9434 13.9721)" class="st0" width="3.63" height="0.83"/>
	<path class="st0" d="M34.4,29.26H23.35c-0.14,0-0.25,0.11-0.25,0.25s0.11,0.25,0.25,0.25H34.4c0.14,0,0.25-0.11,0.25-0.25   S34.53,29.26,34.4,29.26z"/>
	<path class="st0" d="M49.02,29.26H37.97c-0.14,0-0.25,0.11-0.25,0.25s0.11,0.25,0.25,0.25h11.05c0.14,0,0.25-0.11,0.25-0.25   S49.16,29.26,49.02,29.26z"/>
	<path class="st0" d="M31.68,27.56c0.14,0,0.25-0.11,0.25-0.25s-0.11-0.25-0.25-0.25h-8.53c-0.14,0-0.25,0.11-0.25,0.25   s0.11,0.25,0.25,0.25H31.68z"/>
	<path class="st0" d="M40.69,27.06c-0.14,0-0.25,0.11-0.25,0.25s0.11,0.25,0.25,0.25h8.53c0.14,0,0.25-0.11,0.25-0.25   s-0.11-0.25-0.25-0.25H40.69z"/>
	<path class="st0" d="M23.32,25.36h4.34c0.14,0,0.25-0.11,0.25-0.25s-0.11-0.25-0.25-0.25h-4.34c-0.14,0-0.25,0.11-0.25,0.25   S23.18,25.36,23.32,25.36z"/>
	<path class="st0" d="M44.46,25.11c0,0.14,0.11,0.25,0.25,0.25h4.34c0.14,0,0.25-0.11,0.25-0.25s-0.11-0.25-0.25-0.25h-4.34   C44.57,24.86,44.46,24.98,44.46,25.11z"/>
	<path class="st0" d="M23.86,23.16h4.3c0.14,0,0.25-0.11,0.25-0.25s-0.11-0.25-0.25-0.25h-4.3c-0.14,0-0.25,0.11-0.25,0.25   S23.72,23.16,23.86,23.16z"/>
	<path class="st0" d="M43.96,22.92c0,0.14,0.11,0.25,0.25,0.25h4.28c0.14,0,0.25-0.11,0.25-0.25s-0.11-0.25-0.25-0.25h-4.28   C44.07,22.67,43.96,22.78,43.96,22.92z"/>
	<path class="st0" d="M24.89,20.97h1.23c0.14,0,0.25-0.11,0.25-0.25s-0.11-0.25-0.25-0.25h-1.23c-0.14,0-0.25,0.11-0.25,0.25   S24.75,20.97,24.89,20.97z"/>
	<path class="st0" d="M46.01,20.72c0,0.14,0.11,0.25,0.25,0.25h1.23c0.14,0,0.25-0.11,0.25-0.25s-0.11-0.25-0.25-0.25h-1.23   C46.12,20.47,46.01,20.58,46.01,20.72z"/>
	<path class="st0" d="M26.44,18.77h2.05c0.14,0,0.25-0.11,0.25-0.25s-0.11-0.25-0.25-0.25h-2.05c-0.14,0-0.25,0.11-0.25,0.25   S26.3,18.77,26.44,18.77z"/>
	<path class="st0" d="M43.87,18.77h2.01c0.14,0,0.25-0.11,0.25-0.25s-0.11-0.25-0.25-0.25h-2.01c-0.14,0-0.25,0.11-0.25,0.25   S43.74,18.77,43.87,18.77z"/>
	<path class="st0" d="M36.33,18.77c0.14,0,0.25-0.11,0.25-0.25s-0.11-0.25-0.25-0.25h-0.28c-0.14,0-0.25,0.11-0.25,0.25   s0.11,0.25,0.25,0.25H36.33z"/>
	<path class="st0" d="M29.14,16.57h14.08c0.14,0,0.25-0.11,0.25-0.25s-0.11-0.25-0.25-0.25H29.14c-0.14,0-0.25,0.11-0.25,0.25   C28.9,16.46,29.01,16.57,29.14,16.57z"/>
	<path class="st0" d="M34.92,14.63h2.53c0.14,0,0.25-0.11,0.25-0.25s-0.11-0.25-0.25-0.25h-2.53c-0.14,0-0.25,0.11-0.25,0.25   S34.78,14.63,34.92,14.63z"/>
	<path class="st0" d="M32.66,31.65c-0.15,0.15-0.35,0.23-0.56,0.23s-0.41-0.08-0.56-0.23c-0.5-0.5-1.33-0.5-1.83,0   c-0.15,0.15-0.35,0.23-0.56,0.23s-0.41-0.08-0.56-0.23c-0.5-0.5-1.33-0.5-1.83,0c-0.15,0.15-0.35,0.23-0.56,0.23   s-0.41-0.08-0.56-0.23c-0.5-0.5-1.33-0.5-1.83,0c-0.1,0.1-0.1,0.25,0,0.35s0.25,0.1,0.35,0c0.15-0.15,0.35-0.23,0.56-0.23   s0.41,0.08,0.56,0.23c0.24,0.24,0.57,0.38,0.91,0.38s0.67-0.13,0.91-0.38c0.31-0.31,0.82-0.31,1.13,0   c0.24,0.24,0.57,0.38,0.91,0.38s0.67-0.13,0.91-0.38c0.31-0.31,0.82-0.31,1.13,0c0.24,0.24,0.57,0.38,0.91,0.38   c0.34,0,0.67-0.13,0.91-0.38c0.31-0.31,0.82-0.31,1.13,0c0.1,0.1,0.25,0.1,0.35,0s0.1-0.25,0-0.35   C33.98,31.15,33.16,31.15,32.66,31.65z"/>
	<path class="st0" d="M32.25,34.13c-0.41,0.36-1.06,0.36-1.47,0c-0.59-0.52-1.54-0.52-2.13,0c-0.41,0.36-1.06,0.36-1.47,0   c-0.59-0.52-1.54-0.52-2.13,0c-0.1,0.09-0.11,0.25-0.02,0.35s0.25,0.11,0.35,0.02c0.41-0.36,1.06-0.36,1.47,0   c0.59,0.52,1.54,0.52,2.13,0c0.41-0.36,1.06-0.36,1.47,0c0.29,0.26,0.68,0.39,1.06,0.39s0.77-0.13,1.06-0.39   c0.41-0.36,1.06-0.36,1.47,0c0.1,0.09,0.26,0.08,0.35-0.02s0.08-0.26-0.02-0.35C33.79,33.61,32.84,33.61,32.25,34.13z"/>
	<path class="st0" d="M34.29,36.6c-0.74-0.56-1.9-0.56-2.64,0c-0.56,0.43-1.48,0.42-2.04,0c-0.74-0.56-1.9-0.56-2.64,0   c-0.11,0.08-0.13,0.24-0.05,0.35s0.24,0.13,0.35,0.05c0.56-0.42,1.48-0.42,2.04,0c0.37,0.28,0.84,0.42,1.32,0.42   c0.47,0,0.95-0.14,1.32-0.42c0.56-0.42,1.48-0.42,2.04,0c0.11,0.08,0.27,0.06,0.35-0.05S34.4,36.69,34.29,36.6z"/>
	<path class="st0" d="M47.66,31.27c-0.34,0-0.67,0.13-0.91,0.38c-0.15,0.15-0.35,0.23-0.56,0.23s-0.41-0.08-0.56-0.23   c-0.5-0.5-1.33-0.5-1.83,0c-0.15,0.15-0.35,0.23-0.56,0.23s-0.41-0.08-0.56-0.23c-0.5-0.5-1.33-0.5-1.83,0   c-0.15,0.15-0.35,0.23-0.56,0.23s-0.41-0.08-0.56-0.23c-0.5-0.5-1.33-0.5-1.83,0c-0.1,0.1-0.1,0.25,0,0.35s0.25,0.1,0.35,0   c0.31-0.31,0.82-0.31,1.13,0c0.24,0.24,0.57,0.38,0.91,0.38s0.67-0.13,0.91-0.38c0.31-0.31,0.82-0.31,1.13,0   c0.24,0.24,0.57,0.38,0.91,0.38s0.67-0.13,0.91-0.38c0.31-0.31,0.82-0.31,1.13,0c0.24,0.24,0.57,0.38,0.91,0.38   s0.67-0.13,0.91-0.38c0.15-0.15,0.35-0.23,0.56-0.23s0.41,0.08,0.56,0.23c0.1,0.1,0.25,0.1,0.35,0s0.1-0.25,0-0.35   C48.33,31.41,48.01,31.27,47.66,31.27z"/>
	<path class="st0" d="M45.19,34.13c-0.41,0.36-1.06,0.36-1.47,0c-0.59-0.52-1.54-0.52-2.13,0c-0.41,0.36-1.06,0.36-1.47,0   c-0.59-0.52-1.54-0.52-2.13,0c-0.1,0.09-0.11,0.25-0.02,0.35s0.25,0.11,0.35,0.02c0.41-0.36,1.06-0.36,1.47,0   c0.59,0.52,1.54,0.52,2.13,0c0.41-0.36,1.06-0.36,1.47,0c0.29,0.26,0.68,0.39,1.06,0.39s0.77-0.13,1.06-0.39   c0.41-0.36,1.06-0.36,1.47,0c0.1,0.09,0.26,0.08,0.35-0.02s0.08-0.26-0.02-0.35C46.73,33.61,45.77,33.61,45.19,34.13z"/>
	<path class="st0" d="M45.4,36.6c-0.74-0.56-1.9-0.56-2.64,0c-0.56,0.43-1.48,0.42-2.04,0c-0.74-0.56-1.9-0.56-2.64,0   c-0.11,0.08-0.13,0.24-0.05,0.35s0.24,0.13,0.35,0.05c0.56-0.42,1.48-0.43,2.04,0c0.37,0.28,0.84,0.42,1.32,0.42   c0.47,0,0.95-0.14,1.32-0.42c0.56-0.43,1.48-0.42,2.04,0c0.11,0.08,0.27,0.06,0.35-0.05S45.51,36.69,45.4,36.6z"/>
	<path class="st0" d="M54.32,29.4c-0.1-0.01-0.2,0.06-0.22,0.16c-0.5,3.62-2.07,6.97-4.54,9.68c-0.07,0.08-0.07,0.2,0.01,0.27   c0.04,0.03,0.08,0.05,0.13,0.05s0.1-0.02,0.14-0.06c2.52-2.77,4.13-6.19,4.64-9.89C54.49,29.51,54.42,29.41,54.32,29.4z"/>
	<path class="st0" d="M18,29.57c-0.01-0.11-0.11-0.18-0.22-0.16c-0.11,0.01-0.18,0.11-0.16,0.22c0.51,3.7,2.12,7.12,4.64,9.89   c0.04,0.04,0.09,0.06,0.14,0.06s0.09-0.02,0.13-0.05c0.08-0.07,0.08-0.19,0.01-0.27C20.07,36.53,18.5,33.19,18,29.57z"/>
	<path class="st0" d="M55.58,27.2l-0.75-0.21c-0.16-0.05-0.29-0.17-0.33-0.33l-0.21-0.75c-0.01-0.03-0.04-0.03-0.05,0l-0.21,0.75   c-0.05,0.16-0.17,0.29-0.33,0.33l-0.75,0.21c-0.03,0.01-0.03,0.04,0,0.05l0.75,0.21c0.16,0.05,0.29,0.17,0.33,0.33l0.21,0.75   c0.01,0.03,0.04,0.03,0.05,0l0.21-0.75c0.05-0.16,0.17-0.29,0.33-0.33l0.75-0.21C55.61,27.24,55.61,27.21,55.58,27.2z"/>
	<path class="st0" d="M17.71,28.55l0.21-0.75c0.05-0.16,0.17-0.29,0.33-0.33L19,27.26c0.03-0.01,0.03-0.04,0-0.05L18.25,27   c-0.16-0.05-0.29-0.17-0.33-0.33l-0.21-0.75c-0.01-0.03-0.04-0.03-0.05,0l-0.21,0.75c-0.05,0.16-0.17,0.29-0.33,0.33l-0.75,0.21   c-0.03,0.01-0.03,0.04,0,0.05l0.75,0.21c0.16,0.05,0.29,0.17,0.33,0.33l0.21,0.75C17.67,28.58,17.7,28.58,17.71,28.55z"/>
	<path class="st0" d="M40.57,17.55c-0.95-0.3-1.9-0.12-2.75,0.49c-0.74,0.54-1.33,1.39-1.64,2.32c-0.31-0.93-0.89-1.78-1.64-2.32   c-0.84-0.62-1.79-0.79-2.75-0.49c-0.13,0.04-0.21,0.18-0.16,0.31s0.18,0.21,0.31,0.16c1-0.31,1.81,0.06,2.31,0.42   c0.99,0.72,1.66,2.06,1.68,3.34c0,0.14,0.11,0.24,0.25,0.25l0,0l0,0l0,0l0,0l0,0c0.14,0,0.24-0.11,0.25-0.25   c0.01-1.28,0.69-2.62,1.68-3.34c0.5-0.36,1.3-0.73,2.31-0.42c0.13,0.04,0.27-0.03,0.31-0.16C40.77,17.73,40.7,17.6,40.57,17.55z"/>
	<path class="st0" d="M52.83,10.58c-4.45-4.45-10.36-6.89-16.65-6.89s-12.2,2.45-16.65,6.89s-6.89,10.36-6.89,16.65   s2.45,12.2,6.89,16.65c4.45,4.45,10.36,6.89,16.65,6.89s12.2-2.45,16.65-6.89c4.45-4.45,6.89-10.36,6.89-16.65   S57.28,15.03,52.83,10.58z M52.54,43.59c-4.37,4.37-10.18,6.78-16.36,6.78s-11.99-2.41-16.36-6.78   c-4.37-4.37-6.78-10.18-6.78-16.36s2.41-11.99,6.78-16.36S30,4.09,36.18,4.09s11.99,2.41,16.36,6.78s6.77,10.18,6.77,16.36   S56.91,39.22,52.54,43.59z"/>
	<path class="st0" d="M51.79,11.63c-4.17-4.17-9.71-6.46-15.6-6.46s-11.44,2.29-15.6,6.46c-4.17,4.17-6.46,9.71-6.46,15.6   s2.29,11.44,6.46,15.6c4.17,4.17,9.71,6.46,15.6,6.46s11.44-2.29,15.6-6.46c4.17-4.17,6.46-9.71,6.46-15.6S55.96,15.79,51.79,11.63   z M51.51,42.56c-4.09,4.09-9.54,6.35-15.33,6.35s-11.23-2.25-15.33-6.35c-4.09-4.09-6.35-9.54-6.35-15.33S16.75,16,20.85,11.9   c4.09-4.09,9.54-6.35,15.33-6.35S47.41,7.8,51.51,11.9c4.09,4.09,6.35,9.54,6.35,15.33S55.61,38.46,51.51,42.56z"/>
	<path class="st0" d="M43.87,39.84c4.25-2.6,7.09-7.28,7.09-12.61c0-8.15-6.63-14.78-14.78-14.78S21.4,19.08,21.4,27.23   c0,5.33,2.84,10.01,7.08,12.61c0.18,0.11,0.36,0.21,0.54,0.31c0.63,0.35,1.28,0.65,1.96,0.91c0.25,0.09,0.5,0.18,0.76,0.26   c1.4,0.44,2.89,0.68,4.44,0.68c1.54,0,3.03-0.24,4.43-0.68c0.26-0.08,0.51-0.17,0.76-0.26c0.68-0.25,1.33-0.56,1.96-0.91   C43.52,40.05,43.7,39.95,43.87,39.84z M21.8,27.23c0-7.93,6.45-14.39,14.39-14.39s14.38,6.46,14.38,14.39   c0,5.29-2.87,9.93-7.14,12.43c-1.79-0.72-3.83-1.17-5.95-1.3c-0.23-3.32-0.41-10.88-0.43-12.56c1.46,0.26,2.12,2.73,2.12,2.75   c0.03,0.11,0.13,0.19,0.24,0.19l0,0c0.11,0,0.21-0.08,0.24-0.18c0.36-1.34,0.19-2.7-0.46-3.71c-0.4-0.62-0.96-1.07-1.62-1.33   c0.9-0.45,1.9-0.57,2.86-0.32c1.15,0.3,2.18,1.11,2.88,2.25l-3.59-1.14c-0.13-0.04-0.27,0.03-0.31,0.16s0.03,0.27,0.16,0.31   l4.19,1.33c0.03,0.01,0.05,0.01,0.08,0.01c0.07,0,0.14-0.03,0.19-0.09c0.07-0.08,0.08-0.18,0.04-0.27   c-0.75-1.55-2.02-2.66-3.49-3.05c-1-0.26-2.03-0.17-2.98,0.25c0.91-1.28,2.15-2.14,3.52-2.42c1.34-0.27,2.7,0.04,3.89,0.86   l-3.34,0.82c-0.13,0.03-0.21,0.17-0.18,0.3s0.17,0.22,0.3,0.18l3.85-0.94c0.09-0.02,0.16-0.1,0.18-0.19s-0.01-0.19-0.08-0.25   c-1.39-1.15-3.07-1.6-4.71-1.27c-1.34,0.27-2.56,1.04-3.51,2.19c0.84-2.16,2.68-3.62,4.67-3.62c0.01,0,0.01,0,0.02,0l-0.6,0.53   c-0.1,0.09-0.11,0.25-0.02,0.35s0.25,0.11,0.35,0.02l1.04-0.92c0.07-0.06,0.1-0.16,0.07-0.26c-0.03-0.09-0.11-0.16-0.2-0.18   c-2.84-0.42-5.58,1.92-6.18,5.25c-0.02,0.03-0.04,0.06-0.04,0.1c-0.01,0.04,0,0.07,0.01,0.1c0,0,0,0,0,0.01s0,0.01,0,0.02   c0,0.01,0,0.02,0,0.02c0,0.01,0,0.02,0.01,0.02c0,0.01,0.01,0.02,0.01,0.02c0,0.01,0.01,0.01,0.01,0.02c0,0.01,0.01,0.02,0.01,0.02   s0,0.01,0.01,0.01c0,0,0,0,0.01,0.01s0.01,0.01,0.02,0.02c0.01,0.01,0.01,0.01,0.02,0.02c0.01,0.01,0.01,0.01,0.02,0.01   c0.01,0.01,0.01,0.01,0.02,0.01c0,0,0,0,0.01,0h0.01c0.01,0,0.01,0.01,0.02,0.01c0.01,0,0.01,0,0.02,0.01s0.01,0,0.02,0.01h0.01   l0,0c0.01,0,0.03,0,0.04,0c0.05,0,0.1-0.02,0.14-0.04c0.73,0.16,1.37,0.6,1.79,1.25c0.43,0.67,0.62,1.51,0.56,2.4   c-0.4-0.93-1.21-2.23-2.53-2.23c-0.14,0-0.25,0.11-0.25,0.25c0,0.82,0.18,9.2,0.43,12.81c-0.27-0.01-0.54-0.02-0.81-0.02   c-0.26,0-0.52,0.01-0.78,0.02c0.25-3.67,0.42-11.88,0.42-12.69c0-0.14-0.11-0.25-0.25-0.25c-1.33,0-2.13,1.3-2.53,2.23   c-0.07-0.89,0.12-1.73,0.56-2.4c0.46-0.7,1.16-1.16,1.97-1.29c0.14-0.02,0.23-0.15,0.21-0.28c0-0.01-0.01-0.02-0.01-0.03l0,0   c0-0.01,0-0.02,0-0.02c0-0.01,0-0.01,0-0.01c-0.55-3.41-3.33-5.83-6.21-5.4c-0.1,0.01-0.17,0.08-0.2,0.18   c-0.03,0.09,0,0.19,0.07,0.26l1.04,0.92c0.1,0.09,0.26,0.08,0.35-0.02s0.08-0.26-0.02-0.35l-0.6-0.53   c1.99-0.01,3.85,1.46,4.69,3.62c-0.95-1.15-2.17-1.93-3.51-2.19c-1.64-0.33-3.32,0.12-4.71,1.27c-0.07,0.06-0.11,0.16-0.08,0.25   c0.02,0.09,0.09,0.16,0.18,0.19l3.85,0.94c0.13,0.03,0.27-0.05,0.3-0.18c0.03-0.13-0.05-0.27-0.18-0.3l-3.34-0.82   c1.19-0.82,2.55-1.13,3.89-0.86c1.37,0.27,2.61,1.14,3.52,2.42c-0.95-0.42-1.98-0.51-2.98-0.25c-1.47,0.38-2.74,1.49-3.49,3.05   c-0.04,0.09-0.03,0.2,0.04,0.27c0.05,0.05,0.12,0.09,0.19,0.09c0.03,0,0.05,0,0.08-0.01l4.19-1.33c0.13-0.04,0.2-0.18,0.16-0.31   s-0.18-0.2-0.31-0.16l-3.59,1.14c0.7-1.14,1.72-1.95,2.88-2.25c1.01-0.26,2.05-0.12,2.99,0.38c-0.71,0.24-1.33,0.71-1.75,1.37   c-0.66,1.02-0.83,2.37-0.46,3.71c0.03,0.11,0.13,0.19,0.24,0.18c0.11,0,0.21-0.08,0.24-0.19c0.01-0.03,0.67-2.49,2.12-2.75   c-0.02,1.66-0.19,9.07-0.42,12.45c-2.13,0.13-4.17,0.58-5.96,1.29C24.66,37.15,21.8,32.52,21.8,27.23z M36.18,41.62   c-1.29,0-2.55-0.17-3.74-0.49c1.17-0.3,2.44-0.46,3.73-0.46s2.56,0.16,3.74,0.47C38.72,41.45,37.47,41.62,36.18,41.62z    M40.79,40.86c-1.42-0.45-3-0.7-4.62-0.7c-1.61,0-3.19,0.24-4.61,0.69c-0.72-0.24-1.41-0.54-2.07-0.89   c2.01-0.74,4.31-1.15,6.68-1.15s4.68,0.41,6.69,1.16C42.2,40.32,41.51,40.62,40.79,40.86z"/>
</g>
</svg>